<svg id="Layer_1" xmlns="http://www.w3.org/2000/svg" viewBox="0 0 80 80"><style>.st0{fill:#d2b52a}.st1{fill:#fff}</style><path class="st0" d="M40.97 54.96c-8.14 0-14.77-6.63-14.77-14.77s6.63-14.77 14.77-14.77 14.77 6.63 14.77 14.77-6.63 14.77-14.77 14.77zm0-28.56c-7.6 0-13.79 6.19-13.79 13.79s6.19 13.79 13.79 13.79 13.79-6.19 13.79-13.79S48.57 26.4 40.97 26.4z"/><path class="st1" d="M44.2 32.02l-3.6-20.76-3.12 23.58-10.11-9.11 7.38 10.61-20.08 3.51 21.27 2.64-8.76 12.47 10.87-6.87 2.55 20.87 4.15-21.57 10.99 8.06-6.6-11.58 1.27-1.12 19.82-1.39-21.89-5.02 6.42-9.94z"/><path class="st0" d="M41.42 44.54c-2.4 0-4.35-1.95-4.35-4.35 0-2.4 1.95-4.35 4.35-4.35s4.35 1.95 4.35 4.35c-.01 2.4-1.96 4.35-4.35 4.35zm0-7.71c-1.86 0-3.36 1.51-3.36 3.37a3.36 3.36 0 0 0 6.72 0c0-1.87-1.51-3.37-3.36-3.37z"/><circle class="st0" cx="41.42" cy="40.19" r="1.56"/><path class="st0" d="M40.75 74.07l-3.56-25.43-13.95 10.33 2.27-2.88c4.22-5.35 8.63-11.34 9.4-12.98-3.59-.34-23.52-3.04-24.42-3.17l-3.69-.5 27.27-3.48-10.73-13.27 14.3 9.97 3.03-27.35 4.94 25.97 11.43-7.65L48.92 36l25.74 5.32-26.12 3.11 10.09 13.26-13.39-9.1-4.49 25.48zm-2.82-27.19l2.93 20.92 3.68-20.87 9.67 6.57-7.49-9.84 21.83-2.6-21.25-4.39 6.26-9.53-8.63 5.78-4-21.01-2.49 22.51-9.99-6.97 7.49 9.26-21.62 2.76c7.76 1.05 20.16 2.69 21.08 2.69.24 0 .44.12.54.33.14.28.52 1.08-7.43 11.36l9.42-6.97z"/><path class="st0" d="M41.42 36.34c-.34-2.32-.82-27.73-.82-27.73l4.67 23.97-2.3 3.76M55.57 25.33L44.2 37.53l.69 1 3.54-2.11M45.27 40.19l26.33 1.23-24.4 2.75-2.45-2.56"/><path class="st0" d="M40.97 54.96c-8.14 0-14.77-6.63-14.77-14.77s6.63-14.77 14.77-14.77 14.77 6.63 14.77 14.77-6.63 14.77-14.77 14.77zm0-28.56c-7.6 0-13.79 6.19-13.79 13.79s6.19 13.79 13.79 13.79 13.79-6.19 13.79-13.79S48.57 26.4 40.97 26.4z"/><path class="st1" d="M44.2 32.02l-3.6-20.76-3.12 23.58-10.11-9.11 7.38 10.61-20.08 3.51 21.27 2.64-8.76 12.47 10.87-6.87 2.55 20.87 4.15-21.57 10.99 8.06-6.6-11.58 1.27-1.12 19.82-1.39-21.89-5.02 6.42-9.94z"/><path class="st0" d="M41.42 44.54c-2.4 0-4.35-1.95-4.35-4.35 0-2.4 1.95-4.35 4.35-4.35s4.35 1.95 4.35 4.35c-.01 2.4-1.96 4.35-4.35 4.35zm0-7.71c-1.86 0-3.36 1.51-3.36 3.37a3.36 3.36 0 0 0 6.72 0c0-1.87-1.51-3.37-3.36-3.37z"/><circle class="st0" cx="41.42" cy="40.19" r="1.56"/><path class="st0" d="M40.75 74.07l-3.56-25.43-13.95 10.33 2.27-2.88c4.22-5.35 8.63-11.34 9.4-12.98-3.59-.34-23.52-3.04-24.42-3.17l-3.69-.5 27.27-3.48-10.73-13.27 14.3 9.97 3.03-27.35 4.94 25.97 11.43-7.65L48.92 36l25.74 5.32-26.12 3.11 10.09 13.26-13.39-9.1-4.49 25.48zm-2.82-27.19l2.93 20.92 3.68-20.87 9.67 6.57-7.49-9.84 21.83-2.6-21.25-4.39 6.26-9.53-8.63 5.78-4-21.01-2.49 22.51-9.99-6.97 7.49 9.26-21.62 2.76c7.76 1.05 20.16 2.69 21.08 2.69.24 0 .44.12.54.33.14.28.52 1.08-7.43 11.36l9.42-6.97z"/><path class="st0" d="M41.42 36.34c-.34-2.32-.82-27.73-.82-27.73l4.67 23.97-2.3 3.76M55.57 25.33L44.2 37.53l.69 1 3.54-2.11M45.27 40.19l26.33 1.23-24.4 2.75-2.45-2.56M42.49 44.17l2.26 3.22 10.04 6.76-10.92-10.68M40.97 44.41v23.57l-3.49-20.11 1.25-4.24M35.38 42.81l2.1-.85.93 1.09-10.92 11.56 7.65-11.4-.38-.75 2.72-.88.43.6M12.42 39.56l25.14.63.85-2.41-3.03-1.44M37.99 33.59l2.08 2.75-1.29 1.04-11.29-10.71"/><path class="st0" d="M40.97 67.48c-15.05 0-27.29-12.24-27.29-27.29S25.92 12.9 40.97 12.9c15.05 0 27.29 12.24 27.29 27.29S56.01 67.48 40.97 67.48zm0-53.59c-14.5 0-26.31 11.8-26.31 26.31 0 14.5 11.8 26.31 26.31 26.31s26.31-11.8 26.31-26.31c-.01-14.51-11.81-26.31-26.31-26.31zM42.97 33.4c.01-.4-2.01-22.9-2.01-22.9M42.33 3.31c0 .38 0 .75.01.95-.04.07-.2.13-.34.13-.01 0-.2-.3-.48-.64l-1.36-1.68c-.34-.42-.54-.66-.64-.75-.03.06-.03.16-.03.38v1.14c0 .48.02.92.09 1.08.05.12.19.16.34.19l.16.02c.05.05.04.17 0 .21-.32-.01-.55-.02-.79-.02-.22 0-.44.01-.66.02-.04-.04-.05-.16 0-.21l.1-.02c.16-.03.28-.07.32-.19.06-.16.08-.6.08-1.08v-1.5c0-.32-.01-.42-.04-.5-.05-.1-.13-.17-.34-.2L38.6.61c-.04-.05-.04-.19.02-.21.28.01.57.02.81.02.2 0 .37-.01.49-.02.06.26.44.71.97 1.34l.49.58c.26.31.43.51.56.65.02-.06.02-.16.02-.26V1.9c0-.48-.02-.92-.09-1.08-.05-.12-.18-.16-.34-.19L41.4.61c-.05-.05-.04-.17 0-.21.32.01.55.02.79.02.22 0 .43-.01.66-.02.04.03.05.16 0 .21l-.11.02c-.15.02-.27.07-.32.19-.06.16-.09.6-.09 1.08v1.41zM5.97 37.57c-.14.03-.22.08-.26.13-.06.09-.16.28-.32.65-.29.69-.93 2.15-1.22 2.92-.04.03-.12.05-.19.05-.06 0-.12-.02-.16-.05-.06-.14-.15-.35-.22-.52l-.25-.56c-.08-.19-.16-.37-.21-.45-.05.1-.12.24-.2.41l-.27.57c-.09.19-.15.36-.25.55-.03.03-.11.05-.2.05-.06 0-.11-.02-.16-.05-.09-.25-.33-.78-.53-1.22l-.96-2.08c-.16-.35-.19-.38-.39-.42l-.15-.03c-.05-.06-.04-.18.02-.21.22.01.46.02.77.02.26 0 .49-.01.71-.02.05.02.07.17.01.21l-.11.02c-.11.02-.15.05-.15.09s.12.32.31.73l.58 1.3c.16.37.25.53.32.67.07-.12.21-.39.3-.61l.08-.17c.04-.09.06-.17.06-.21 0-.04-.04-.16-.06-.22l-.56-1.24c-.14-.29-.18-.34-.4-.36l-.06-.01c-.06-.05-.05-.18.02-.21.25.01.48.02.74.02.3 0 .52-.01.68-.02.07.02.06.18.02.21l-.1.02c-.07.02-.16.04-.16.08 0 .05.02.11.05.18l.18.41c.05.12.13.28.18.39l.18-.4.05-.12c.1-.22.17-.4.17-.44 0-.04-.02-.06-.12-.08l-.21-.04c-.04-.04-.03-.18.02-.21.17.01.38.02.58.02.23 0 .45-.01.6-.02.05.03.06.17.01.21l-.16.03c-.2.04-.24.04-.45.39-.14.24-.29.54-.37.69-.05.11-.13.28-.13.31 0 .02.01.05.05.15l.28.59c.15.32.24.51.27.59.28-.68.61-1.43.89-2.15.04-.1.15-.41.15-.48 0-.06-.09-.08-.17-.11l-.13-.04c-.05-.05-.04-.18.02-.21a8.181 8.181 0 0 0 1.15 0c.05.03.06.16.02.21l-.19.09zM40.58 79.78c-.54 0-.88-.15-1-.22-.11-.13-.19-.55-.19-.95.04-.08.18-.08.22-.02.12.38.51.92 1.01.92.43 0 .64-.3.64-.59 0-.48-.45-.76-.8-.94-.42-.21-.89-.56-.89-1.15-.01-.66.51-1.12 1.36-1.12.19 0 .44.02.67.09.08.02.13.04.2.05.05.13.11.45.11.84-.03.07-.18.08-.23.02-.1-.3-.35-.73-.78-.73-.39 0-.6.25-.6.55 0 .27.24.52.54.67l.39.21c.36.19.83.53.83 1.18 0 .72-.59 1.19-1.48 1.19zM77.6 40.86c0 .16.01.18.16.18h.41c.31 0 .38-.04.43-.32l.03-.15c.04-.05.19-.05.22.01-.01.19-.02.4-.02.62s.01.43.02.62c-.03.05-.18.06-.22.01l-.03-.15c-.06-.28-.13-.33-.43-.33h-.41c-.16 0-.16.01-.16.18v.7c0 .27.02.46.09.56.08.11.19.15.62.15.51 0 .71-.02 1.04-.68.05-.06.19-.04.22.03-.02.31-.16.78-.25.94-.31-.01-.88-.02-1.36-.02h-.76c-.28 0-.57.01-1.01.02-.05-.04-.05-.18 0-.21l.28-.04c.26-.04.3-.08.3-.62v-2.19c0-.54-.04-.57-.3-.62l-.15-.03c-.05-.03-.05-.17.01-.21.28.01.56.02.85.02h1.25c.38 0 .71-.01.79-.02.01.09.05.52.08.91-.02.06-.16.08-.22.02-.06-.21-.15-.38-.22-.46-.11-.11-.29-.18-.58-.18h-.47c-.19 0-.19.01-.19.23v1.03z"/><path class="st0" d="M42.49 44.17l2.26 3.22 10.04 6.76-10.92-10.68M40.97 44.41v23.57l-3.49-20.11 1.25-4.24M35.38 42.81l2.1-.85.93 1.09-10.92 11.56 7.65-11.4-.38-.75 2.72-.88.43.6M12.42 39.56l25.14.63.85-2.41-3.03-1.44M37.99 33.59l2.08 2.75-1.29 1.04-11.29-10.71"/><path class="st0" d="M40.97 67.48c-15.05 0-27.29-12.24-27.29-27.29S25.92 12.9 40.97 12.9c15.05 0 27.29 12.24 27.29 27.29S56.01 67.48 40.97 67.48zm0-53.59c-14.5 0-26.31 11.8-26.31 26.31 0 14.5 11.8 26.31 26.31 26.31s26.31-11.8 26.31-26.31c-.01-14.51-11.81-26.31-26.31-26.31zM42.97 33.4c.01-.4-2.01-22.9-2.01-22.9M42.33 3.31c0 .38 0 .75.01.95-.04.07-.2.13-.34.13-.01 0-.2-.3-.48-.64l-1.36-1.68c-.34-.42-.54-.66-.64-.75-.03.06-.03.16-.03.38v1.14c0 .48.02.92.09 1.08.05.12.19.16.34.19l.16.02c.05.05.04.17 0 .21-.32-.01-.55-.02-.79-.02-.22 0-.44.01-.66.02-.04-.04-.05-.16 0-.21l.1-.02c.16-.03.28-.07.32-.19.06-.16.08-.6.08-1.08v-1.5c0-.32-.01-.42-.04-.5-.05-.1-.13-.17-.34-.2L38.6.61c-.04-.05-.04-.19.02-.21.28.01.57.02.81.02.2 0 .37-.01.49-.02.06.26.44.71.97 1.34l.49.58c.26.31.43.51.56.65.02-.06.02-.16.02-.26V1.9c0-.48-.02-.92-.09-1.08-.05-.12-.18-.16-.34-.19L41.4.61c-.05-.05-.04-.17 0-.21.32.01.55.02.79.02.22 0 .43-.01.66-.02.04.03.05.16 0 .21l-.11.02c-.15.02-.27.07-.32.19-.06.16-.09.6-.09 1.08v1.41zM5.97 37.57c-.14.03-.22.08-.26.13-.06.09-.16.28-.32.65-.29.69-.93 2.15-1.22 2.92-.04.03-.12.05-.19.05-.06 0-.12-.02-.16-.05-.06-.14-.15-.35-.22-.52l-.25-.56c-.08-.19-.16-.37-.21-.45-.05.1-.12.24-.2.41l-.27.57c-.09.19-.15.36-.25.55-.03.03-.11.05-.2.05-.06 0-.11-.02-.16-.05-.09-.25-.33-.78-.53-1.22l-.96-2.08c-.16-.35-.19-.38-.39-.42l-.15-.03c-.05-.06-.04-.18.02-.21.22.01.46.02.77.02.26 0 .49-.01.71-.02.05.02.07.17.01.21l-.11.02c-.11.02-.15.05-.15.09s.12.32.31.73l.58 1.3c.16.37.25.53.32.67.07-.12.21-.39.3-.61l.08-.17c.04-.09.06-.17.06-.21 0-.04-.04-.16-.06-.22l-.56-1.24c-.14-.29-.18-.34-.4-.36l-.06-.01c-.06-.05-.05-.18.02-.21.25.01.48.02.74.02.3 0 .52-.01.68-.02.07.02.06.18.02.21l-.1.02c-.07.02-.16.04-.16.08 0 .05.02.11.05.18l.18.41c.05.12.13.28.18.39l.18-.4.05-.12c.1-.22.17-.4.17-.44 0-.04-.02-.06-.12-.08l-.21-.04c-.04-.04-.03-.18.02-.21.17.01.38.02.58.02.23 0 .45-.01.6-.02.05.03.06.17.01.21l-.16.03c-.2.04-.24.04-.45.39-.14.24-.29.54-.37.69-.05.11-.13.28-.13.31 0 .02.01.05.05.15l.28.59c.15.32.24.51.27.59.28-.68.61-1.43.89-2.15.04-.1.15-.41.15-.48 0-.06-.09-.08-.17-.11l-.13-.04c-.05-.05-.04-.18.02-.21a8.181 8.181 0 0 0 1.15 0c.05.03.06.16.02.21l-.19.09zM40.58 79.78c-.54 0-.88-.15-1-.22-.11-.13-.19-.55-.19-.95.04-.08.18-.08.22-.02.12.38.51.92 1.01.92.43 0 .64-.3.64-.59 0-.48-.45-.76-.8-.94-.42-.21-.89-.56-.89-1.15-.01-.66.51-1.12 1.36-1.12.19 0 .44.02.67.09.08.02.13.04.2.05.05.13.11.45.11.84-.03.07-.18.08-.23.02-.1-.3-.35-.73-.78-.73-.39 0-.6.25-.6.55 0 .27.24.52.54.67l.39.21c.36.19.83.53.83 1.18 0 .72-.59 1.19-1.48 1.19zM77.6 40.86c0 .16.01.18.16.18h.41c.31 0 .38-.04.43-.32l.03-.15c.04-.05.19-.05.22.01-.01.19-.02.4-.02.62s.01.43.02.62c-.03.05-.18.06-.22.01l-.03-.15c-.06-.28-.13-.33-.43-.33h-.41c-.16 0-.16.01-.16.18v.7c0 .27.02.46.09.56.08.11.19.15.62.15.51 0 .71-.02 1.04-.68.05-.06.19-.04.22.03-.02.31-.16.78-.25.94-.31-.01-.88-.02-1.36-.02h-.76c-.28 0-.57.01-1.01.02-.05-.04-.05-.18 0-.21l.28-.04c.26-.04.3-.08.3-.62v-2.19c0-.54-.04-.57-.3-.62l-.15-.03c-.05-.03-.05-.17.01-.21.28.01.56.02.85.02h1.25c.38 0 .71-.01.79-.02.01.09.05.52.08.91-.02.06-.16.08-.22.02-.06-.21-.15-.38-.22-.46-.11-.11-.29-.18-.58-.18h-.47c-.19 0-.19.01-.19.23v1.03z"/></svg>