<svg id="Layer_1" xmlns="http://www.w3.org/2000/svg" viewBox="0 0 80 80"><style>.st0{fill:#d2b52a}.st1{fill:#fff}</style><path class="st0" d="M40.97 54.96c-8.14 0-14.77-6.63-14.77-14.77s6.63-14.77 14.77-14.77 14.77 6.63 14.77 14.77-6.63 14.77-14.77 14.77zm0-28.56c-7.6 0-13.79 6.19-13.79 13.79s6.19 13.79 13.79 13.79 13.79-6.19 13.79-13.79S48.57 26.4 40.97 26.4z"/><path class="st1" d="M44.2 32.02l-3.6-20.76-3.12 23.58-10.11-9.11 7.38 10.61-20.08 3.51 21.27 2.64-8.76 12.47 10.87-6.87 2.55 20.87 4.15-21.57 10.99 8.06-6.6-11.58 1.27-1.12 19.82-1.39-21.89-5.02 6.42-9.94z"/><path class="st0" d="M41.42 44.54c-2.4 0-4.35-1.95-4.35-4.35 0-2.4 1.95-4.35 4.35-4.35s4.35 1.95 4.35 4.35c-.01 2.4-1.96 4.35-4.35 4.35zm0-7.71c-1.86 0-3.36 1.51-3.36 3.37a3.36 3.36 0 0 0 6.72 0c0-1.87-1.51-3.37-3.36-3.37z"/><circle class="st0" cx="41.42" cy="40.19" r="1.56"/><path class="st0" d="M40.75 74.07l-3.56-25.43-13.95 10.33 2.27-2.88c4.22-5.35 8.63-11.34 9.4-12.98-3.59-.34-23.52-3.04-24.42-3.17l-3.69-.5 27.27-3.48-10.73-13.27 14.3 9.97 3.03-27.35 4.94 25.97 11.43-7.65L48.92 36l25.74 5.32-26.12 3.11 10.09 13.26-13.39-9.1-4.49 25.48zm-2.82-27.19l2.93 20.92 3.68-20.87 9.67 6.57-7.49-9.84 21.83-2.6-21.25-4.39 6.26-9.53-8.63 5.78-4-21.01-2.49 22.51-9.99-6.97 7.49 9.26-21.62 2.76c7.76 1.05 20.16 2.69 21.08 2.69.24 0 .44.12.54.33.14.28.52 1.08-7.43 11.36l9.42-6.97z"/><path class="st0" d="M41.42 36.34c-.34-2.32-.82-27.73-.82-27.73l4.67 23.97-2.3 3.76M55.57 25.33L44.2 37.53l.69 1 3.54-2.11M45.27 40.19l26.33 1.23-24.4 2.75-2.45-2.56"/><path class="st0" d="M40.97 54.96c-8.14 0-14.77-6.63-14.77-14.77s6.63-14.77 14.77-14.77 14.77 6.63 14.77 14.77-6.63 14.77-14.77 14.77zm0-28.56c-7.6 0-13.79 6.19-13.79 13.79s6.19 13.79 13.79 13.79 13.79-6.19 13.79-13.79S48.57 26.4 40.97 26.4z"/><path class="st1" d="M44.2 32.02l-3.6-20.76-3.12 23.58-10.11-9.11 7.38 10.61-20.08 3.51 21.27 2.64-8.76 12.47 10.87-6.87 2.55 20.87 4.15-21.57 10.99 8.06-6.6-11.58 1.27-1.12 19.82-1.39-21.89-5.02 6.42-9.94z"/><path class="st0" d="M41.42 44.54c-2.4 0-4.35-1.95-4.35-4.35 0-2.4 1.95-4.35 4.35-4.35s4.35 1.95 4.35 4.35c-.01 2.4-1.96 4.35-4.35 4.35zm0-7.71c-1.86 0-3.36 1.51-3.36 3.37a3.36 3.36 0 0 0 6.72 0c0-1.87-1.51-3.37-3.36-3.37z"/><circle class="st0" cx="41.42" cy="40.19" r="1.56"/><path class="st0" d="M40.75 74.07l-3.56-25.43-13.95 10.33 2.27-2.88c4.22-5.35 8.63-11.34 9.4-12.98-3.59-.34-23.52-3.04-24.42-3.17l-3.69-.5 27.27-3.48-10.73-13.27 14.3 9.97 3.03-27.35 4.94 25.97 11.43-7.65L48.92 36l25.74 5.32-26.12 3.11 10.09 13.26-13.39-9.1-4.49 25.48zm-2.82-27.19l2.93 20.92 3.68-20.87 9.67 6.57-7.49-9.84 21.83-2.6-21.25-4.39 6.26-9.53-8.63 5.78-4-21.01-2.49 22.51-9.99-6.97 7.49 9.26-21.62 2.76c7.76 1.05 20.16 2.69 21.08 2.69.24 0 .44.12.54.33.14.28.52 1.08-7.43 11.36l9.42-6.97z"/><path class="st0" d="M41.42 36.34c-.34-2.32-.82-27.73-.82-27.73l4.67 23.97-2.3 3.76M55.57 25.33L44.2 37.53l.69 1 3.54-2.11M45.27 40.19l26.33 1.23-24.4 2.75-2.45-2.56M42.49 44.17l2.26 3.22 10.04 6.76-10.92-10.68M40.97 44.41v23.57l-3.49-20.11 1.25-4.24M35.38 42.81l2.1-.85.93 1.09-10.92 11.56 7.65-11.4-.38-.75 2.72-.88.43.6M12.42 39.56l25.14.63.85-2.41-3.03-1.44M37.99 33.59l2.08 2.75-1.29 1.04-11.29-10.71"/><path class="st0" d="M40.97 67.48c-15.05 0-27.29-12.24-27.29-27.29S25.92 12.9 40.97 12.9c15.05 0 27.29 12.24 27.29 27.29S56.01 67.48 40.97 67.48zm0-53.59c-14.5 0-26.31 11.8-26.31 26.31 0 14.5 11.8 26.31 26.31 26.31s26.31-11.8 26.31-26.31c-.01-14.51-11.81-26.31-26.31-26.31zM42.97 33.4c.01-.4-2.01-22.9-2.01-22.9"/><path class="st0" d="M42.49 44.17l2.26 3.22 10.04 6.76-10.92-10.68M40.97 44.41v23.57l-3.49-20.11 1.25-4.24M35.38 42.81l2.1-.85.93 1.09-10.92 11.56 7.65-11.4-.38-.75 2.72-.88.43.6M12.42 39.56l25.14.63.85-2.41-3.03-1.44M37.99 33.59l2.08 2.75-1.29 1.04-11.29-10.71"/><path class="st0" d="M40.97 67.48c-15.05 0-27.29-12.24-27.29-27.29S25.92 12.9 40.97 12.9c15.05 0 27.29 12.24 27.29 27.29S56.01 67.48 40.97 67.48zm0-53.59c-14.5 0-26.31 11.8-26.31 26.31 0 14.5 11.8 26.31 26.31 26.31s26.31-11.8 26.31-26.31c-.01-14.51-11.81-26.31-26.31-26.31zM42.97 33.4c.01-.4-2.01-22.9-2.01-22.9"/></svg>