<svg id="Layer_1" data-name="Layer 1" xmlns="http://www.w3.org/2000/svg" xmlns:xlink="http://www.w3.org/1999/xlink" viewBox="0 0 347.76 77.2">
  <defs>
    <clipPath id="clip-path" transform="translate(-91.2 -54.73)">
      <path d="M185,69.05h-8.21c-2.66,0-5.33.08-8,.08h-.86a26.5,26.5,0,0,1-5.33-.36c-.22,0-.36-.08-.36-.29,0-.72,1-2.16,1-3.53,0-.79-.36-1.8-1.29-1.8s-2.74,1.51-3.31,2.38c-.8,1.08-1.52,3.38-3.1,3.38-2.3,0-4.61.22-6.91.22-1.8,0-2.6-.65-4.25-.65-1.37,0-3,.5-3,2.16,0,2.23,4.9,2.37,7.71,2.37h1.3c.28,0,.86-.07,1.44-.07.86,0,1.8.15,1.8.72,0,2-2.81,6.56-3.89,8.14-1.73,2.59-3.1,5.47-5.55,7.42a27.68,27.68,0,0,1-4.53,3h0a57.72,57.72,0,0,1-6.26,2.44,13.73,13.73,0,0,1-4.46.86c-1.58,0-3.46-.5-3.46-2.37,0-.94,3-2.52,3.68-3,3.74-2.52,4.53-3.45,5.54-7.77a8.27,8.27,0,0,0,.29-2.31c0-1.36-.51-3.81-2.31-3.81a3.16,3.16,0,0,0-.86.14,12.86,12.86,0,0,1-2.74.79,10.83,10.83,0,0,0-5.25,3.53c-1.8,2-2.23,4.25-3,6.84a23.79,23.79,0,0,0-.75,4.11L114.79,94c-.5.21-5.11,2.81-5.26,2.81s-.21-.29-.21-.44c0-1.36.79-2.66,1.08-4,.57-2.37,2-4.46,2.66-6.84a15.86,15.86,0,0,0,.72-3.24c0-2.52-1.51-3.09-1.51-4a.14.14,0,0,1,.14-.14c.87,0,1.8-1.44,1.8-2.24,0-1.22-1.29-1.8-2.37-1.8a3.82,3.82,0,0,0-2.45.94A96.8,96.8,0,0,0,98,85.9c-2.16,2.52-5.25,5.33-5.25,8.93,0,2.38.72,3.89,3.31,3.89,3.09,0,8.42-2.81,8.42-2.81.22,0,.22.65.22,1v.29a24.54,24.54,0,0,1-.22,3.31c-.14,1.22-3.09,4.47-3.89,5.55l-2,3a36.1,36.1,0,0,0-3.46,8,25.09,25.09,0,0,0-.93,6.55c0,3,1,7,4.68,7a7.09,7.09,0,0,0,4.68-2.09c4.46-4.25,5-13.54,5.18-22.61a11.94,11.94,0,0,1,.15-2.45c.36-1.87,4.46-5.18,6.12-6.05l5.21-2.92c.71,3.34,3.58,5,7.31,5s9.68-2.41,13.59-4.8c2.27-1,4.36-2.54,5.42-2.54a.39.39,0,0,1,.43.28,10.83,10.83,0,0,1,.36,2.16A4.7,4.7,0,0,0,152,98.79c4,0,7.56-1.58,11.09-3.53,1.66-.86,4.68-2,4.68-4.32,0-.36-.07-.64-.5-.64-.87,0-2.88,1.15-3.68,1.51a36.5,36.5,0,0,1-9.14,3.45,3.37,3.37,0,0,1-.94.15c-1.51,0-1.94-1.15-1.94-2.52,0-4.32,5-16.63,8.14-19.59a1.63,1.63,0,0,1,.86-.43,13.7,13.7,0,0,1,3-.22l10.66-.21c4.18-.07,11,0,11.81-.94a3,3,0,0,0,.79-1.58C186.86,69.13,185.57,69.05,185,69.05Zm-82.8,54.87c-.58.8-2.16,3.17-3.31,3.17-1.37,0-1.44-3.74-1.44-4.61a16.57,16.57,0,0,1,1-4.89c.44-1.08.87-2.09,1.37-3.1.43-.86,3.67-6.77,4.68-6.77.07,0,.15.07.15.22v.36c0,1.08.07,2.23.07,3.38C104.71,115.43,104.35,120.68,102.19,123.92Zm2.45-32.76c-1.16,1.08-3.75,3.53-5.4,3.53-.51,0-1.52-.22-1.52-.87,0-2.16,8.93-12.6,10.73-12.6.36,0,.36.36.36.65A13.72,13.72,0,0,1,104.64,91.16Zm20.44-3.1a7.69,7.69,0,0,1,3.89-6.4,4,4,0,0,1,1.95-.87c.43,0,.64.36.64.79a6,6,0,0,1-.93,2.6c-.65,1.08-4,4.32-5.26,4.32C125.08,88.5,125.08,88.28,125.08,88.06Z" fill="none"/>
    </clipPath>
    <clipPath id="clip-path-2" transform="translate(-91.2 -54.73)">
      <path d="M210.47,64.52c1.08,0,2.6-.65,2.6-2s-2.31-3.24-3.82-3.24c-1.22,0-2.09,1.44-2.09,2.59C207.16,63.51,209,64.52,210.47,64.52Z" fill="none"/>
    </clipPath>
    <clipPath id="clip-path-3" transform="translate(-91.2 -54.73)">
      <path d="M260.08,90.44c-1,0-3.38,1.3-4.75,1.94a30.89,30.89,0,0,1-10,2.88,4.32,4.32,0,0,1-1,.15c-1.08,0-1.81-.43-1.81-1.59,0-2.08,1.59-3.88,1.59-6,0-1.3-.5-3-2.09-3-2.66,0-10.87,7.78-11.81,7.78-.21,0-.21-.36-.21-.43,0-2.09,3.6-8.07,3.6-10.88,0-1.15-1-1.51-2-1.51-1.37,0-5.26,5.19-6.26,6.27A28.3,28.3,0,0,1,222,89.22a29.56,29.56,0,0,1-4.39,3c-.39.19-1.41.69-2.14,1.08-.53.23-.94.42-1.17.5-2.59,1-7.2,3-9.79,3-1.37,0-1.8-.57-1.8-1.87,0-2.3,1.51-6.19,2.59-8.21a9,9,0,0,0,1.37-3.74c0-1.08-.94-2.52-2.09-2.52s-2.88,3.24-3.46,4.18c-1.08,1.72-1.87,3.38-3.45,4.68a22.37,22.37,0,0,1-4.32,3c-.58.29-2.6,1.15-3,1.44a1.33,1.33,0,0,0-.51.86c0,.65,1.37.8,1.8.8,2.52,0,6.19-2.52,6.55-2.52s.36,1.15.36,1.36a16.1,16.1,0,0,0,.94,4.83c.5,1.22,1.87,1.51,3.17,1.51,4,0,10.73-3.1,14.47-4.9.45-.23,1.17-.6,2-1,2.71-1.15,5.25-3.2,5.61-3.2.58,0,.58,1.58.58,1.94,0,1.44-.22,3-.22,4.39,0,1.08.07,2.81,1.51,2.81,1.59,0,3.53-2.09,4.47-3.24s4.32-4.75,5.83-4.75a.4.4,0,0,1,.36.21c.86,1.44-.79,6.92,4.68,6.92a3.47,3.47,0,0,0,.94-.08,30.7,30.7,0,0,0,12-4c1.3-.72,5.4-2.8,5.4-4.46A1.18,1.18,0,0,0,260.08,90.44Z" fill="none"/>
    </clipPath>
    <clipPath id="clip-path-4" transform="translate(-91.2 -54.73)">
      <path d="M291.54,80.79c-1.29,3.89-4.17,9.15-4.46,13-.14,1.8-.07,4.68-2.59,4.68-1.59,0-2-1-2-2.52,0-2.37,1.15-5.83,1.95-8,2.23-6.26,5.4-12.17,7.7-18.36.72-1.94,3-9.29,4.75-10.37a1.39,1.39,0,0,1,.51-.14c1,0,1.15,1.65,1.15,2.3C298.53,66.68,293.27,75.32,291.54,80.79Z" fill="none"/>
    </clipPath>
    <clipPath id="clip-path-5" transform="translate(-91.2 -54.73)">
      <path d="M437.27,90.37c-1.51,0-8.64,4.75-14.11,4.75-.5,0-1.3-.07-1.3-.72s1.44-4.39,1.66-5.54a25.73,25.73,0,0,0,.72-5.26c0-1.58-.5-2.81-2.23-2.81s-2.88,2.31-3.82,3.31a32.52,32.52,0,0,1-2.45,2.24l-2.44,2c-.72.65-3.17,3.1-4,3.24h-.57c-.36,0-.72-.07-.72-.5a9.43,9.43,0,0,1,.28-1.51c.08-.22,0-.36.15-.58.36-.65,5.11-5.47,5.83-6.19a26,26,0,0,0,6.84-17.43c0-2.23-.14-5.69-3.17-5.69s-6.26,4.11-7.7,6.48c-3.67,6-4.61,10.23-5.19,16.93-.21,2.08-.14,4.75-1.87,6.12a31,31,0,0,1-4.53,3c-.24.14-.79.4-1.33.67L397,93c-3.31,1.44-10,3.17-13.68,3.17-3.38,0-5.9-1.22-5.9-5,0-2.3.36-5.18,2.16-6.77a6.1,6.1,0,0,1,1.44-1c.5-.29,1.51-1.08,2.09-1.08.29,0,.43.21.43.5,0,.79-.5,1.44-.5,2.23a1.55,1.55,0,0,0,1.65,1.66A3.42,3.42,0,0,0,388,83.24c0-.14-.07-.36-.07-.5-.14-1.3-.36-5.19-1.51-6.13a2.47,2.47,0,0,0-1.59-.43h-.28c-1.73,0-3.89,2.16-5,2.95a14.23,14.23,0,0,0-6.69,11.6c-.85.36-1.76.86-2.24,1.08a36.5,36.5,0,0,1-9.14,3.45,3.37,3.37,0,0,1-.94.15c-1.51,0-1.94-1.15-1.94-2.52,0-4.32,5-16.63,8.13-19.59a1.71,1.71,0,0,1,.87-.43,13.61,13.61,0,0,1,3-.22l10.66-.21c4.17-.07,11,0,11.81-.94a3.08,3.08,0,0,0,.79-1.58c0-.79-1.3-.87-1.87-.87h-8.21c-2.67,0-5.33.08-8,.08h-.86a26.55,26.55,0,0,1-5.33-.36c-.21,0-.36-.08-.36-.29,0-.72,1-2.16,1-3.53,0-.79-.36-1.8-1.3-1.8s-2.73,1.51-3.31,2.38c-.79,1.08-1.51,3.38-3.09,3.38-2.31,0-4.61.22-6.92.22-1.8,0-2.59-.65-4.25-.65-1.36,0-3,.5-3,2.16,0,2.23,4.9,2.37,7.71,2.37h1.29c.29,0,.87-.07,1.44-.07.87,0,1.8.15,1.8.72,0,2-2.81,6.56-3.89,8.14-1.73,2.59-3.09,5.47-5.54,7.42a27.35,27.35,0,0,1-4.54,3c-.32.19-1.21.61-1.9,1s-1,.46-1.26.55c-2.6,1-7.2,3-9.8,3-1.36,0-1.8-.57-1.8-1.87,0-2.3,1.52-6.19,2.6-8.21a9.1,9.1,0,0,0,1.36-3.74c0-1.08-.93-2.52-2.08-2.52s-2.89,3.24-3.46,4.18c-1.08,1.72-1.87,3.38-3.46,4.68a22.07,22.07,0,0,1-4.32,3c-.37.19-1.34.61-2.08,1l-.29.11A20.74,20.74,0,0,1,315,94.69a36.21,36.21,0,0,1-3.89.21h-.29c-.79,0-2.3-.07-2.3-1a1.44,1.44,0,0,1,.07-.58c1.58-5.76,3.67-11.38,5.83-17,.94-2.38,1.95-4.76,2.81-7.2a26.5,26.5,0,0,0,1.66-7.06c0-1.37-.44-1.87-1.8-1.87-1.88,0-2.09,2.3-2.38,3.67A41.17,41.17,0,0,1,313.07,69c-1.08,3-2.23,6-3.38,8.93a105,105,0,0,0-4.75,13.32c0,.22-.07,1.15-.36,1.15-.51,0-2.74-1.65-3.17-1.94-2.16-1.44-4.18-2.38-5.47-4.75-.51-.94-1.52-3-2.74-3s-2,1.51-2,2.59c0,1.51,1.08,3,1.88,4.17a10.17,10.17,0,0,0,1.15,1.37,9.37,9.37,0,0,1,1.94,3.24c.94,2.45,5.11,9.8,7.78,10.59a8,8,0,0,0,1.8.29c3.46,0,.94-6.41,2.88-6.41.79,0,1.66.14,2.45.14a16.24,16.24,0,0,0,3.24-.36,40.47,40.47,0,0,0,11.25-4.6,15.18,15.18,0,0,1,1.85-.94c.36,0,.36,1.15.36,1.36a16.09,16.09,0,0,0,.93,4.83c.51,1.22,1.88,1.51,3.17,1.51,4,0,10.73-3.1,14.48-4.9.46-.24,1.22-.62,2-1.09,2.17-1,4.14-2.43,5.16-2.43a.41.41,0,0,1,.44.28,12.49,12.49,0,0,1,.36,2.16A4.69,4.69,0,0,0,359,98.79c4,0,7.56-1.58,11.09-3.53a22.65,22.65,0,0,0,3-1.66c.95,4.34,4.33,6.49,9.3,6.49s11.23-2.09,15.77-4.47c.38-.21,1-.54,1.72-.94,1.76-.71,3.36-1.72,3.46-1.72.36,0,.43.79.43,1.37v.57c0,.8-.22,1.52-.22,2.24,0,1.29,1.3,1.87,2.38,1.87a2.32,2.32,0,0,0,2-.87,16.4,16.4,0,0,1,4.39-4.6c.79-.58,6.05-5.19,6.62-5.19.29,0,.29.51.29.65,0,1.58-1.73,3.6-1.73,5.83,0,2.81,1.59,4,4.25,4a17.31,17.31,0,0,0,3.89-.57c2.3-.65,12-4.54,12-7.13C437.7,90.87,437.56,90.37,437.27,90.37Zm-28.15-8.5c.72-6.26,1.8-10.37,5.4-15.77.5-.79,1.73-2.3,2.81-2.3s1.15,1.65,1.15,2.45a20,20,0,0,1-4.1,11.37c-.65.8-4,5.33-5,5.33-.29,0-.36-.43-.36-.65S409.12,82,409.12,81.87ZM302.63,98.58c-.72,0-2.59-3.39-2.59-4a2.38,2.38,0,0,1,.58.14c.64.43,3.16,1.8,3.16,2.52C303.78,97.71,303.06,98.58,302.63,98.58Z" fill="none"/>
    </clipPath>
    <clipPath id="clip-path-6" transform="translate(-91.2 -54.73)">
      <path d="M339.64,64.52c-1.51,0-3.31-1-3.31-2.67,0-1.15.86-2.59,2.09-2.59,1.51,0,3.81,1.73,3.81,3.24S340.72,64.52,339.64,64.52Z" fill="none"/>
    </clipPath>
  </defs>
  <title>getInHitch</title>
  <g id="Get">
    <g clip-path="url(#clip-path)">
      <g>
        <g>
          <path id="pathG" d="M110.62,81.26s-2,9-5,12-10,5.83-10,0c0-3,11-17,14-15s-3,43-7,48-15-1,1-20a43,43,0,0,1,18-14" transform="translate(-91.2 -54.73)" fill="none" stroke="#000" stroke-miterlimit="10" stroke-width="8"/>
          <path id="pathEt" d="M121.62,92.26s8-4,10-7,2-6,1-7S119,80.88,123.75,95a3.61,3.61,0,0,0,3.39,2.47c3.68,0,11-1,18.83-8.25a33.68,33.68,0,0,0,6.61-8.45c2.5-4.48,11.15-19.33,12.52-22.75,0,0-16,26.37-14.81,35.17a4.14,4.14,0,0,0,4.39,3.52c2.57-.17,6.83-1.47,12.94-6.46" transform="translate(-91.2 -54.73)" fill="none" stroke="#000" stroke-miterlimit="10" stroke-width="8"/>
        </g>
        <path id="pathT" d="M135.35,69.26s28.27,2.84,56.27.84" transform="translate(-91.2 -54.73)" fill="none" stroke="#000" stroke-miterlimit="10" stroke-width="8"/>
      </g>
    </g>
  </g>
  <g id="Dot1">
    <g clip-path="url(#clip-path-2)">
      <line id="pathDot1" x1="112.74" y1="4.38" x2="123.54" y2="10.31" fill="none" stroke="#000" stroke-miterlimit="10" stroke-width="10"/>
    </g>
  </g>
  <g id="In">
    <g clip-path="url(#clip-path-3)">
      <path id="pathIn" d="M187.8,94.62S202,89.81,206,78.81c0,0-12.35,24.82.65,18.82,0,0,17.65-6.43,23.13-15.14a.2.2,0,0,1,.35.17c-1.19,3.76-4.17,13.78-2.55,14.6,2,1,12-13,13-10,0,0-3,13,4,10,0,0,16.78-6.57,17.78-8.57" transform="translate(-91.2 -54.73)" fill="none" stroke="#000" stroke-miterlimit="10" stroke-width="8"/>
    </g>
  </g>
  <g id="H">
    <g clip-path="url(#clip-path-4)">
      <line id="pathH" x1="207.74" y1="1.19" x2="190.83" y2="46.92" fill="none" stroke="#000" stroke-miterlimit="10" stroke-width="6"/>
    </g>
  </g>
  <g id="Hitch">
    <g clip-path="url(#clip-path-5)">
      <g>
        <path id="pathHitch" d="M318.41,56.9l-13.65,46.64S293.51,89.26,293.36,86s6.58,16.83,26.83,9.23c0,0,11.45-6.09,15.2-15.83,0,0-9.56,17.15-2.61,19.06,0,0,20.36,1.62,37.62-38.21,0,0-25.57,40.32-10.69,36.3,0,0,11-1.59,15.2-8.46,0,0,11.78-20.56,11.5-1.8,0,.44-1.27-4-1.58-4.36-1.64-1.66-5.34-3.36-9.21,8.64,0,0-4.4,13.44,17.1,6.15,0,0,13.42-4.2,23.81-19.35,0,0,6.49-12,1-15.36s-11.24,20.5-11.73,34.71c0,0,16.13-17.55,15.8-12.5,0,0-5.53,16.93,1,14.41s14.74-8.14,14.74-8.14" transform="translate(-91.2 -54.73)" fill="none" stroke="#000" stroke-miterlimit="10" stroke-width="6"/>
        <line id="pathT2" x1="252.82" y1="16.37" x2="305.1" y2="15.26" fill="none" stroke="#000" stroke-miterlimit="10" stroke-width="7"/>
      </g>
    </g>
  </g>
  <g id="Dot2">
    <g clip-path="url(#clip-path-6)">
      <line id="pathDot2" x1="242.56" y1="4.96" x2="252.18" y2="10.24" fill="none" stroke="#000" stroke-miterlimit="10" stroke-width="8"/>
    </g>
  </g>
</svg>